HIERARCHY
ROOT Hips
{
  OFFSET -4.35178 90.3298 111.633
  CHANNELS 6 Xposition Yposition Zposition Zrotation Xrotation Yrotation
  JOINT LeftUpLeg
  {
    OFFSET 0.103456 1.85784 10.5485
    CHANNELS 6 Xposition Yposition Zposition Zrotation Xrotation Yrotation
    JOINT LeftLeg
    {
      OFFSET 43.5 -4.2e-05 0
      CHANNELS 6 Xposition Yposition Zposition Zrotation Xrotation Yrotation
      JOINT LeftFoot
      {
        OFFSET 42.3722 1.9e-05 0
        CHANNELS 6 Xposition Yposition Zposition Zrotation Xrotation Yrotation
        JOINT LeftToe
        {
          OFFSET 17.3 0 0
          CHANNELS 6 Xposition Yposition Zposition Zrotation Xrotation Yrotation
          End Site
          {
            OFFSET 0 0 0
          }
        }
      }
    }
  }
  JOINT RightUpLeg
  {
    OFFSET 0.103456 1.85782 -10.5485
    CHANNELS 6 Xposition Yposition Zposition Zrotation Xrotation Yrotation
    JOINT RightLeg
    {
      OFFSET 43.5 -2.7e-05 0
      CHANNELS 6 Xposition Yposition Zposition Zrotation Xrotation Yrotation
      JOINT RightFoot
      {
        OFFSET 42.3723 0 0
        CHANNELS 6 Xposition Yposition Zposition Zrotation Xrotation Yrotation
        JOINT RightToe
        {
          OFFSET 17.3 0 1.7e-05
          CHANNELS 6 Xposition Yposition Zposition Zrotation Xrotation Yrotation
          End Site
          {
            OFFSET 0 0 0
          }
        }
      }
    }
  }
  JOINT Spine
  {
    OFFSET 6.90197 -2.60373 0
    CHANNELS 6 Xposition Yposition Zposition Zrotation Xrotation Yrotation
    JOINT Spine1
    {
      OFFSET 12.5881 0 0
      CHANNELS 6 Xposition Yposition Zposition Zrotation Xrotation Yrotation
      JOINT Spine2
      {
        OFFSET 12.3432 -1.8e-05 0
        CHANNELS 6 Xposition Yposition Zposition Zrotation Xrotation Yrotation
        JOINT Neck
        {
          OFFSET 25.8329 2.3e-05 0
          CHANNELS 6 Xposition Yposition Zposition Zrotation Xrotation Yrotation
          JOINT Head
          {
            OFFSET 11.7666 0 0
            CHANNELS 6 Xposition Yposition Zposition Zrotation Xrotation Yrotation
            End Site
            {
              OFFSET 0 0 0
            }
          }
        }
        JOINT LeftShoulder
        {
          OFFSET 19.7459 -1.48035 6.0001
          CHANNELS 6 Xposition Yposition Zposition Zrotation Xrotation Yrotation
          JOINT LeftArm
          {
            OFFSET 11.2841 1.8e-05 -2e-05
            CHANNELS 6 Xposition Yposition Zposition Zrotation Xrotation Yrotation
            JOINT LeftForeArm
            {
              OFFSET 33 -1.3e-05 1.9e-05
              CHANNELS 6 Xposition Yposition Zposition Zrotation Xrotation Yrotation
              JOINT LeftHand
              {
                OFFSET 25.2 3.2e-05 1.1e-05
                CHANNELS 6 Xposition Yposition Zposition Zrotation Xrotation Yrotation
                End Site
                {
                  OFFSET 0 0 0
                }
              }
            }
          }
        }
        JOINT RightShoulder
        {
          OFFSET 19.7461 -1.48036 -6.00008
          CHANNELS 6 Xposition Yposition Zposition Zrotation Xrotation Yrotation
          JOINT RightArm
          {
            OFFSET 11.2841 0 0
            CHANNELS 6 Xposition Yposition Zposition Zrotation Xrotation Yrotation
            JOINT RightForeArm
            {
              OFFSET 33.0001 1.6e-05 0
              CHANNELS 6 Xposition Yposition Zposition Zrotation Xrotation Yrotation
              JOINT RightHand
              {
                OFFSET 25.1998 0.000123 0.000432
                CHANNELS 6 Xposition Yposition Zposition Zrotation Xrotation Yrotation
                End Site
                {
                  OFFSET 0 0 0
                }
              }
            }
          }
        }
      }
    }
  }
}
MOTION
Frames:	10
Frame Time:	0.0333333
16.1845 91.8914 -4.27041 12.8941 84.0953 79.0742 0.103456 1.85784 10.5485 9.53422 2.21917 -178.306 43.5 -4.2e-05 1e-05 -6.04029 -8.47915 -1.48556 42.3722 1.9e-05 0 73.54 -5.65538 4.30591 17.3 2.66454e-15 3e-06 21.4546 -1e-06 0.003093 0.103456 1.85782 -10.5485 2.77109 -7.88222 171.464 43.5 -2.7e-05 4e-06 -17.2126 9.71935 1.85787 42.3723 -1.77636e-15 1e-05 79.8059 8.60555 -5.17523 17.3 -6e-06 1.7e-05 21.4546 -1.9e-05 -0.003116 6.90197 -2.60373 -3e-06 6.93959 0.0839697 -0.435131 12.5881 1e-05 8e-06 3.86564 0.15951 -0.856916 12.3432 -1.8e-05 -5e-06 3.54754 0.162 -0.855739 25.8329 2.3e-05 7e-06 4.75527 -2.93941 -5.97512 11.7666 -8e-06 -6e-06 -17.5606 -7.72766 10.4551 19.7459 -1.48035 6.0001 177.928 -3.8839 -89.7753 11.2841 1.8e-05 -2e-05 0.781854 -10.1477 14.0614 33 -1.3e-05 1.9e-05 -23.024 1.14811 -15.9294 25.2 3.2e-05 1.1e-05 10.0685 30.8497 -3.50408 19.7461 -1.48036 -6.00008 177.741 7.84464 88.7745 11.2841 0 -1e-06 -4.07281 6.58882 -12.1206 33.0001 1.6e-05 -1e-06 -21.9127 -1.16331 15.9304 25.1998 0.000123 0.000432 7.91266 -14.3034 3.47746 
16.2072 91.8991 -4.2571 14.1386 84.0516 77.8693 0.103456 1.85784 10.5485 9.44928 2.22604 -178.391 43.5 -4.2e-05 1e-05 -6.39445 -8.48915 -1.4475 42.3722 1.9e-05 -7.10543e-15 73.8394 -5.73688 4.43495 17.3 -8.88178e-16 3e-06 21.4546 -1e-06 0.003093 0.103456 1.85782 -10.5485 2.4071 -7.53371 171.465 43.5 -2.7e-05 4e-06 -18.1395 9.91673 1.78783 42.3723 0 1e-05 80.4234 8.79852 -5.45041 17.3 -6e-06 1.7e-05 21.4546 -1.9e-05 -0.003116 6.90197 -2.60373 -3e-06 6.97037 0.0839694 -0.455914 12.5881 1e-05 8e-06 3.9273 0.15773 -0.898375 12.3432 -1.8e-05 -5e-06 3.60934 0.158593 -0.896895 25.8329 2.3e-05 7e-06 4.74483 -2.80527 -6.04047 11.7666 -8e-06 -6e-06 -17.64 -7.611 10.5674 19.7459 -1.48035 6.0001 177.941 -3.80007 -89.8429 11.2841 1.8e-05 -2e-05 1.06251 -10.3241 14.2494 33 -1.3e-05 1.9e-05 -23.0312 1.11316 -15.9568 25.2 3.2e-05 1.1e-05 10.0858 30.8082 -3.49547 19.7461 -1.48036 -6.00008 177.794 7.78958 88.762 11.2841 0 -1e-06 -4.04317 6.64863 -12.2471 33.0001 1.6e-05 -1e-06 -21.9582 -1.18636 15.973 25.1998 0.000123 0.000432 7.88613 -14.3188 3.50458 
16.2293 91.8742 -4.19092 15.1109 83.9789 76.9402 0.103456 1.85784 10.5485 9.45941 2.25998 -178.471 43.5 -4.2e-05 1e-05 -6.72925 -8.50452 -1.41772 42.3722 1.9e-05 0 74.357 -5.96395 4.47441 17.3 1.77636e-15 3e-06 21.4546 -1e-06 0.003093 0.103456 1.85782 -10.5485 2.07553 -7.27878 171.426 43.5 -2.7e-05 4e-06 -19.1848 10.1603 1.73664 42.3723 0 1e-05 81.2638 9.27148 -5.65224 17.3 -6e-06 1.7e-05 21.4546 -1.9e-05 -0.003116 6.90197 -2.60373 -3e-06 7.01011 0.0798332 -0.471737 12.5881 1e-05 8e-06 4.00699 0.147942 -0.929311 12.3432 -1.8e-05 -5e-06 3.68923 0.148107 -0.927017 25.8329 2.3e-05 7e-06 4.70876 -2.70797 -6.08443 11.7666 -8e-06 -6e-06 -17.6715 -7.52625 10.6494 19.7459 -1.48035 6.0001 177.929 -3.71828 -89.8889 11.2841 1.8e-05 -2e-05 1.3393 -10.554 14.5043 33 -1.3e-05 1.9e-05 -22.9574 1.15362 -16.0377 25.2 3.2e-05 1.1e-05 10.0992 30.798 -3.47483 19.7461 -1.48036 -6.00008 177.838 7.7308 88.6924 11.2841 0 -1e-06 -3.99027 6.66267 -12.3463 33.0001 1.6e-05 -1e-06 -22.0487 -1.20876 16.0241 25.1998 0.000123 0.000432 7.83359 -14.3205 3.53157 
16.2498 91.8365 -4.0339 15.0767 83.9396 77.0115 0.103456 1.85784 10.5485 9.02663 2.40577 -178.522 43.5 -4.2e-05 1e-05 -7.95577 -8.46313 -1.39682 42.3722 1.9e-05 0 75.2527 -6.05801 4.40877 17.3 0 3e-06 21.4546 -1e-06 0.003093 0.103456 1.85782 -10.5485 1.90412 -7.1596 171.339 43.5 -2.7e-05 4e-06 -19.9628 10.3239 1.72629 42.3723 -1.77636e-15 1e-05 81.9835 9.71319 -5.68201 17.3 -6e-06 1.7e-05 21.4546 -1.9e-05 -0.003116 6.90197 -2.60373 -3e-06 7.05177 0.0669459 -0.483646 12.5881 1e-05 8e-06 4.0906 0.121209 -0.951218 12.3432 -1.8e-05 -5e-06 3.7733 0.121341 -0.947091 25.8329 2.3e-05 7e-06 4.6381 -2.63367 -6.13615 11.7666 -8e-06 -6e-06 -17.5641 -7.43284 10.6876 19.7459 -1.48035 6.0001 177.97 -3.64173 -89.8357 11.2841 1.8e-05 -2e-05 1.48304 -10.598 14.6576 33 -1.3e-05 1.9e-05 -22.9279 1.14274 -16.0496 25.2 3.2e-05 1.1e-05 10.088 30.7851 -3.50646 19.7461 -1.48036 -6.00008 177.888 7.71682 88.5691 11.2841 0 -1e-06 -3.86658 6.5847 -12.4483 33.0001 1.6e-05 -1e-06 -22.2891 -1.22752 16.0911 25.1998 0.000123 0.000432 7.82685 -14.3252 3.54048 
16.3074 91.7913 -3.80431 14.2952 83.9505 77.8145 0.103456 1.85784 10.5485 8.63677 2.48563 -178.573 43.5 -4.2e-05 1e-05 -9.08452 -8.40646 -1.36275 42.3722 1.9e-05 0 76.0345 -6.05009 4.36954 17.3 0 3e-06 21.4546 -1e-06 0.003093 0.103456 1.85782 -10.5485 1.8822 -7.04159 171.251 43.5 -2.7e-05 4e-06 -20.5076 10.4734 1.72069 42.3723 0 1e-05 82.6567 10.2293 -5.65959 17.3 -6e-06 1.7e-05 21.4546 -1.9e-05 -0.003116 6.90197 -2.60373 -3e-06 7.08833 0.0326766 -0.481205 12.5881 1e-05 8e-06 4.16427 0.0536806 -0.941567 12.3432 -1.8e-05 -5e-06 3.84794 0.0556497 -0.933129 25.8329 2.3e-05 7e-06 4.55339 -2.5723 -6.17957 11.7666 -8e-06 -6e-06 -17.3697 -7.33645 10.7155 19.7459 -1.48035 6.0001 177.939 -3.52828 -89.8387 11.2841 1.8e-05 -2e-05 1.82172 -10.9469 15.0708 33 -1.3e-05 1.9e-05 -23.0031 1.09133 -16.1044 25.2 3.2e-05 1.1e-05 10.235 30.7467 -3.62524 19.7461 -1.48036 -6.00008 178 7.68641 88.3854 11.2841 3.55271e-15 -1e-06 -3.6515 6.51421 -12.6679 33.0001 1.6e-05 -1e-06 -22.9107 -1.26668 16.2571 25.1998 0.000123 0.000432 7.87771 -14.3888 3.65459 
16.3846 91.7426 -3.50003 13.1789 84.0077 78.9376 0.103456 1.85784 10.5485 8.24511 2.4689 -178.626 43.5 -4.2e-05 1e-05 -10.2159 -8.36422 -1.31615 42.3722 1.9e-05 -7.10543e-15 76.7721 -6.03404 4.37791 17.3 8.88178e-16 3e-06 21.4546 -1e-06 0.003093 0.103456 1.85782 -10.5485 2.01739 -6.9442 171.2 43.5 -2.7e-05 4e-06 -20.7719 10.5992 1.71317 42.3723 0 1e-05 83.1665 10.6811 -5.65749 17.3 -6e-06 1.7e-05 21.4546 -1.9e-05 -0.003116 6.90197 -2.60373 -3e-06 7.12627 0.00206626 -0.477924 12.5881 1e-05 8e-06 4.24039 -0.00635562 -0.930699 12.3432 -1.8e-05 -5e-06 3.92492 -0.00244601 -0.918425 25.8329 2.3e-05 7e-06 4.41138 -2.51437 -6.20679 11.7666 -8e-06 -6e-06 -17.0784 -7.26578 10.7607 19.7459 -1.48035 6.0001 177.88 -3.45331 -89.7586 11.2841 1.8e-05 -2e-05 2.06822 -11.2484 15.4762 33 -1.3e-05 1.9e-05 -23.2799 1.07575 -16.0901 25.2 3.2e-05 1.1e-05 10.087 30.6994 -3.64947 19.7461 -1.48036 -6.00008 178.253 7.71791 87.9776 11.2841 -3.55271e-15 -1e-06 -3.51052 6.04928 -12.9065 33.0001 1.6e-05 -1e-06 -24.0822 -1.62755 16.4958 25.1998 0.000123 0.000432 7.71729 -14.5686 3.75489 
16.4803 91.6959 -3.15332 12.424 84.1035 79.6748 0.103456 1.85784 10.5485 7.86729 2.41716 -178.668 43.5 -4.2e-05 1e-05 -11.2786 -8.3367 -1.28247 42.3722 1.9e-05 7.10543e-15 77.4577 -6.06199 4.38441 17.3 0 3e-06 21.4546 -1e-06 0.003093 0.103456 1.85782 -10.5485 2.13935 -6.90634 171.146 43.5 -2.7e-05 4e-06 -20.9451 10.6875 1.72322 42.3723 0 1e-05 83.5173 10.9835 -5.62562 17.3 -6e-06 1.7e-05 21.4546 -1.9e-05 -0.003116 6.90197 -2.60373 -3e-06 7.1836 -0.0245491 -0.45285 12.5881 1e-05 8e-06 4.35536 -0.0551405 -0.87677 12.3432 -1.8e-05 -5e-06 4.04046 -0.046042 -0.861396 25.8329 2.3e-05 7e-06 4.13215 -2.48263 -6.23891 11.7666 -8e-06 -6e-06 -16.7449 -7.18484 10.7282 19.7459 -1.48035 6.0001 177.781 -3.43262 -89.5429 11.2841 1.8e-05 -2e-05 2.31279 -11.596 16.0106 33 -1.3e-05 1.9e-05 -24.0184 1.23169 -16.0759 25.2 3.2e-05 1.1e-05 9.79305 30.7595 -3.76955 19.7461 -1.48036 -6.00008 178.725 7.8022 87.1182 11.2841 -3.55271e-15 -1e-06 -3.59367 4.72477 -12.8832 33.0001 1.6e-05 -1e-06 -26.3489 -2.47202 16.8955 25.1998 0.000123 0.000432 7.35264 -15.0216 3.96821 
16.6143 91.6448 -2.76231 12.9629 84.2296 79.1395 0.103456 1.85784 10.5485 7.58517 2.36661 -178.788 43.5 -4.2e-05 1e-05 -12.1472 -8.38214 -1.234 42.3722 1.9e-05 -7.10543e-15 78.1133 -6.02865 4.45343 17.3 8.88178e-16 3e-06 21.4546 -1e-06 0.003093 0.103456 1.85782 -10.5485 2.16524 -6.83953 171.015 43.5 -2.7e-05 4e-06 -21.2104 10.7648 1.76292 42.3723 0 1e-05 83.9196 11.3038 -5.55212 17.3 -6e-06 1.7e-05 21.4546 -1.9e-05 -0.003116 6.90197 -2.60373 -3e-06 7.27521 -0.0395692 -0.44627 12.5881 1e-05 8e-06 4.53886 -0.0827902 -0.861193 12.3432 -1.8e-05 -5e-06 4.22431 -0.0699065 -0.843811 25.8329 2.3e-05 7e-06 3.72696 -2.40432 -6.31587 11.7666 -8e-06 -6e-06 -16.5112 -7.06686 10.7111 19.7459 -1.48035 6.0001 177.789 -3.50365 -89.0707 11.2841 1.8e-05 -2e-05 2.62808 -11.6087 16.48 33 -1.3e-05 1.9e-05 -25.9029 1.40288 -15.8109 25.2 3.2e-05 1.1e-05 9.36034 30.9713 -4.28867 19.7461 -1.48036 -6.00008 179.336 7.92776 86.0021 11.2841 0 -1e-06 -3.66921 3.38659 -13.3781 33.0001 1.6e-05 -1e-06 -30.2707 -3.44425 17.5402 25.1998 0.000123 0.000432 6.66687 -15.4289 4.26706 
16.7774 91.5793 -2.32891 15.2371 84.407 76.8652 0.103456 1.85784 10.5485 7.34538 2.31507 -178.952 43.5 -4.2e-05 1e-05 -12.845 -8.48784 -1.17939 42.3722 1.9e-05 7.10543e-15 78.7219 -6.02345 4.57088 17.3 -8.88178e-16 3e-06 21.4546 -1e-06 0.003093 0.103456 1.85782 -10.5485 2.08529 -6.63397 170.884 43.5 -2.7e-05 4e-06 -21.4877 10.8277 1.80469 42.3723 3.55271e-15 1e-05 84.2047 11.4883 -5.52895 17.3 -6e-06 1.7e-05 21.4546 -1.9e-05 -0.003116 6.90197 -2.60373 -3e-06 7.39478 -0.0562886 -0.43893 12.5881 1e-05 8e-06 4.77811 -0.113262 -0.843711 12.3432 -1.8e-05 -5e-06 4.46395 -0.0956145 -0.824085 25.8329 2.3e-05 7e-06 3.29692 -2.34328 -6.34852 11.7666 -8e-06 -6e-06 -16.5136 -6.95469 10.657 19.7459 -1.48035 6.0001 177.755 -3.77458 -88.5956 11.2841 1.8e-05 -2e-05 3.22884 -11.8977 17.5669 33 -1.3e-05 1.9e-05 -28.9628 1.89348 -15.3974 25.2 3.2e-05 1.1e-05 8.39495 31.3797 -4.84788 19.7461 -1.48036 -6.00008 -179.82 8.09866 84.6113 11.2841 0 -1e-06 -4.21785 1.28269 -14.1837 33.0001 1.6e-05 -1e-06 -35.517 -4.83407 18.0026 25.1998 0.000123 0.000432 4.99228 -15.8901 4.59873 
16.9862 91.4993 -1.82835 18.3648 84.6 73.7292 0.103456 1.85784 10.5485 7.12824 2.32376 -179.14 43.5 -4.2e-05 1e-05 -13.5064 -8.61845 -1.13832 42.3722 1.9e-05 7.10543e-15 79.3066 -5.99732 4.68714 17.3 -1.77636e-15 3e-06 21.4546 -1e-06 0.003093 0.103456 1.85782 -10.5485 2.02858 -6.41366 170.728 43.5 -2.7e-05 4e-06 -21.5808 10.8372 1.86952 42.3723 1.77636e-15 1e-05 84.0683 11.3888 -5.55868 17.3 -6e-06 1.7e-05 21.4546 -1.9e-05 -0.003116 6.90197 -2.60373 -3e-06 7.52986 -0.0812551 -0.413438 12.5881 1e-05 8e-06 5.04858 -0.157279 -0.78868 12.3432 -1.8e-05 -5e-06 4.73488 -0.132038 -0.76602 25.8329 2.3e-05 7e-06 2.86742 -2.32968 -6.35718 11.7666 -8e-06 -6e-06 -16.4491 -6.78235 10.4926 19.7459 -1.48035 6.0001 177.897 -4.17433 -88.026 11.2841 1.8e-05 -2e-05 4.24844 -12.2495 19.4041 33 -1.3e-05 1.9e-05 -33.8165 2.55135 -14.5116 25.2 3.2e-05 1.1e-05 7.17954 32.0503 -5.53837 19.7461 -1.48036 -6.00008 -178.93 8.23059 83.1952 11.2841 0 -1e-06 -5.14061 -1.08094 -15.4191 33.0001 1.6e-05 -1e-06 -42.0927 -6.10472 18.1819 25.1998 0.000123 0.000432 2.73364 -16.4507 5.20406 
